<svg id="icons" enable-background="new 0 0 64 64" height="512" viewBox="0 0 64 64" width="512" xmlns="http://www.w3.org/2000/svg"><g><g><path d="m22.999 12h40.001l-.55 3h-40.45v-2z" fill="#aab2bd"/></g><g><g><path d="m53 47.999c.55 0 1 .45 1 1v2.001c0 .55-.45 1-1 1h-12c-.55 0-1-.45-1-1v-2.001c0-.55.45-1 1-1z" fill="#434a54"/></g><g><path d="m31 47.999c.55 0 1 .45 1 1v2.001c0 .55-.45 1-1 1h-12c-.55 0-1-.45-1-1v-2.001c0-.55.45-1 1-1z" fill="#434a54"/></g></g><g><path d="m54 44.99v4.01h-14-8-14v-4.01z" fill="#545c66"/></g><g><path d="m22 15v16h-4v-15l.999-1z" fill="#545c66"/></g><g><path d="m18 16v15h-5c-6.63 0-12-5.37-12-12v-3z" fill="#aab2bd"/></g><g><path d="m62.45 15-1.45 8h-2c-7.74 0-14 6.26-14 14l9 7.99h-36l7-5.99c1.68-1.439 3-2 3-4 0-2.21-1.79-4-4-4h-2v-16z" fill="#656d78"/></g><circle cx="23" cy="13" fill="#aab2bd" r="1"/><circle cx="19" cy="16" fill="#545c66" r="1"/></g></svg>