<?xml version="1.0" encoding="iso-8859-1"?>
<!-- Generator: Adobe Illustrator 19.0.0, SVG Export Plug-In . SVG Version: 6.00 Build 0)  -->
<svg version="1.1" id="Capa_1" xmlns="http://www.w3.org/2000/svg" xmlns:xlink="http://www.w3.org/1999/xlink" x="0px" y="0px"
	 viewBox="0 0 512 512" style="enable-background:new 0 0 512 512;" xml:space="preserve">
<g>
	<polygon style="fill:#8C4F53;" points="472.949,95.458 438.237,95.458 412.203,34.712 281.071,34.712 256,0 230.929,34.712 
		99.797,34.712 73.763,95.458 39.051,95.458 4.339,199.593 21.695,199.593 21.695,477.288 143.186,477.288 368.814,477.288 
		490.305,477.288 490.305,199.593 507.661,199.593 	"/>
	<rect x="4.339" y="477.288" style="fill:#8C4F53;" width="503.322" height="34.712"/>
</g>
<polygon style="fill:#DC4B5A;" points="368.814,477.288 143.186,477.288 143.186,156.203 256,0 368.814,156.203 "/>
<g>
	<polygon style="fill:#AF6D6F;" points="368.814,156.203 368.814,199.593 507.661,199.593 472.949,95.458 324.938,95.458 	"/>
	<polygon style="fill:#AF6D6F;" points="143.186,156.203 187.062,95.458 39.051,95.458 4.339,199.593 143.186,199.593 	"/>
</g>
<g>
	<rect x="21.695" y="199.593" style="fill:#F78B9A;" width="121.492" height="277.695"/>
	<rect x="368.814" y="199.593" style="fill:#F78B9A;" width="121.492" height="277.695"/>
</g>
<circle style="fill:#FFFFFF;" cx="256" cy="164.881" r="52.068"/>
<g>
	<path style="fill:#7383BF;" d="M256,173.559c-4.79,0-8.678-3.888-8.678-8.678v-17.356c0-4.79,3.888-8.678,8.678-8.678
		c4.79,0,8.678,3.888,8.678,8.678v17.356C264.678,169.672,260.79,173.559,256,173.559z"/>
	<path style="fill:#7383BF;" d="M273.356,173.559H256c-4.79,0-8.678-3.888-8.678-8.678s3.888-8.678,8.678-8.678h17.356
		c4.79,0,8.678,3.888,8.678,8.678S278.146,173.559,273.356,173.559z"/>
</g>
<g>
	<rect x="177.898" y="251.661" style="fill:#D3E3F9;" width="52.068" height="78.102"/>
	<rect x="177.898" y="364.475" style="fill:#D3E3F9;" width="52.068" height="78.102"/>
	<rect x="56.407" y="251.661" style="fill:#D3E3F9;" width="52.068" height="78.102"/>
	<rect x="56.407" y="364.475" style="fill:#D3E3F9;" width="52.068" height="78.102"/>
	<rect x="403.525" y="251.661" style="fill:#D3E3F9;" width="52.068" height="78.102"/>
	<rect x="403.525" y="364.475" style="fill:#D3E3F9;" width="52.068" height="78.102"/>
	<rect x="282.034" y="251.661" style="fill:#D3E3F9;" width="52.068" height="78.102"/>
	<rect x="282.034" y="364.475" style="fill:#D3E3F9;" width="52.068" height="78.102"/>
</g>
<g>
	<polygon style="fill:#8C4F53;" points="73.763,95.458 187.054,95.458 230.929,34.712 99.797,34.712 	"/>
	<polygon style="fill:#8C4F53;" points="438.237,95.458 324.946,95.458 281.071,34.712 412.203,34.712 	"/>
</g>
<g>
</g>
<g>
</g>
<g>
</g>
<g>
</g>
<g>
</g>
<g>
</g>
<g>
</g>
<g>
</g>
<g>
</g>
<g>
</g>
<g>
</g>
<g>
</g>
<g>
</g>
<g>
</g>
<g>
</g>
</svg>
